<mxfile host="app.diagrams.net" agent="Mozilla/5.0 (Windows NT 10.0; Win64; x64) AppleWebKit/537.36 (KHTML, like Gecko) Chrome/130.0.0.0 Safari/537.36" version="24.8.3">
  <diagram name="Page-1" id="vCg_MlWZA_7JhtkfMOp2">
    <mxGraphModel dx="2074" dy="1104" grid="1" gridSize="10" guides="1" tooltips="1" connect="1" arrows="1" fold="1" page="1" pageScale="1" pageWidth="850" pageHeight="1100" math="0" shadow="0">
      <root>
        <mxCell id="0" />
        <mxCell id="1" parent="0" />
        <mxCell id="FswJCTiF_LaIAhzLPm2B-1" value="" style="whiteSpace=wrap;html=1;aspect=fixed;fillColor=default;" parent="1" vertex="1">
          <mxGeometry x="153" y="278" width="545" height="545" as="geometry" />
        </mxCell>
        <mxCell id="FswJCTiF_LaIAhzLPm2B-2" value="" style="rounded=0;whiteSpace=wrap;html=1;" parent="1" vertex="1">
          <mxGeometry x="153" y="278" width="545" height="60" as="geometry" />
        </mxCell>
        <mxCell id="FswJCTiF_LaIAhzLPm2B-77" value="User" style="ellipse;whiteSpace=wrap;html=1;aspect=fixed;" parent="1" vertex="1">
          <mxGeometry x="640" y="278" width="58" height="58" as="geometry" />
        </mxCell>
        <mxCell id="FswJCTiF_LaIAhzLPm2B-89" value="" style="rounded=1;whiteSpace=wrap;html=1;" parent="1" vertex="1">
          <mxGeometry x="173" y="380" width="250" height="440" as="geometry" />
        </mxCell>
        <mxCell id="FswJCTiF_LaIAhzLPm2B-91" value="" style="rounded=1;whiteSpace=wrap;html=1;" parent="1" vertex="1">
          <mxGeometry x="430" y="380" width="250" height="440" as="geometry" />
        </mxCell>
        <mxCell id="FswJCTiF_LaIAhzLPm2B-92" value="Magic Items" style="text;html=1;align=center;verticalAlign=middle;whiteSpace=wrap;rounded=0;" parent="1" vertex="1">
          <mxGeometry x="257" y="380" width="82" height="30" as="geometry" />
        </mxCell>
        <mxCell id="FswJCTiF_LaIAhzLPm2B-93" value="Consumable Items" style="text;html=1;align=center;verticalAlign=middle;whiteSpace=wrap;rounded=0;" parent="1" vertex="1">
          <mxGeometry x="495" y="380" width="120" height="30" as="geometry" />
        </mxCell>
        <mxCell id="AIfhr5pSmPWxQg0O1Jw0-1" value="Home" style="text;html=1;align=center;verticalAlign=middle;whiteSpace=wrap;rounded=0;" vertex="1" parent="1">
          <mxGeometry x="273" y="308" width="60" height="30" as="geometry" />
        </mxCell>
        <mxCell id="AIfhr5pSmPWxQg0O1Jw0-2" value="Transactions" style="text;html=1;align=center;verticalAlign=middle;whiteSpace=wrap;rounded=0;" vertex="1" parent="1">
          <mxGeometry x="335.5" y="308" width="60" height="30" as="geometry" />
        </mxCell>
        <mxCell id="AIfhr5pSmPWxQg0O1Jw0-3" value="Items" style="text;html=1;align=center;verticalAlign=middle;whiteSpace=wrap;rounded=0;" vertex="1" parent="1">
          <mxGeometry x="395.5" y="308" width="60" height="30" as="geometry" />
        </mxCell>
        <mxCell id="AIfhr5pSmPWxQg0O1Jw0-4" value="Vehicles" style="text;html=1;align=center;verticalAlign=middle;whiteSpace=wrap;rounded=0;" vertex="1" parent="1">
          <mxGeometry x="450" y="308" width="60" height="30" as="geometry" />
        </mxCell>
        <mxCell id="AIfhr5pSmPWxQg0O1Jw0-5" value="" style="rounded=0;whiteSpace=wrap;html=1;" vertex="1" parent="1">
          <mxGeometry x="153" y="278" width="120" height="60" as="geometry" />
        </mxCell>
        <mxCell id="AIfhr5pSmPWxQg0O1Jw0-6" value="World Date" style="text;html=1;align=center;verticalAlign=middle;whiteSpace=wrap;rounded=0;" vertex="1" parent="1">
          <mxGeometry x="173" y="278" width="80" height="30" as="geometry" />
        </mxCell>
        <mxCell id="AIfhr5pSmPWxQg0O1Jw0-7" value="Spring 55, 1805 AG" style="text;html=1;align=center;verticalAlign=middle;whiteSpace=wrap;rounded=0;" vertex="1" parent="1">
          <mxGeometry x="153" y="308" width="117" height="30" as="geometry" />
        </mxCell>
        <mxCell id="AIfhr5pSmPWxQg0O1Jw0-8" value="Hirelings" style="text;html=1;align=center;verticalAlign=middle;whiteSpace=wrap;rounded=0;" vertex="1" parent="1">
          <mxGeometry x="510" y="308" width="60" height="30" as="geometry" />
        </mxCell>
        <mxCell id="AIfhr5pSmPWxQg0O1Jw0-9" value="Party" style="text;html=1;align=center;verticalAlign=middle;whiteSpace=wrap;rounded=0;" vertex="1" parent="1">
          <mxGeometry x="570" y="308" width="60" height="30" as="geometry" />
        </mxCell>
        <mxCell id="AIfhr5pSmPWxQg0O1Jw0-10" value="Add Magic Item" style="rounded=1;whiteSpace=wrap;html=1;" vertex="1" parent="1">
          <mxGeometry x="210" y="340" width="138" height="30" as="geometry" />
        </mxCell>
        <mxCell id="AIfhr5pSmPWxQg0O1Jw0-11" value="Add Consumable Item" style="rounded=1;whiteSpace=wrap;html=1;" vertex="1" parent="1">
          <mxGeometry x="480" y="340" width="133" height="30" as="geometry" />
        </mxCell>
      </root>
    </mxGraphModel>
  </diagram>
</mxfile>
